<svg xmlns="http://www.w3.org/2000/svg">

  <symbol id="telefono" viewBox="0 0 24 24">
  <g fill="none" stroke="currentColor" stroke-width="2" stroke-linecap="round" stroke-linejoin="round">
    <path d="M13.832 16.568a1 1 0 0 0 1.213-.303l.355-.465A2 2 0 0 1 17 15h3a2 2 0 0 1 2 2v3a2 2 0 0 1-2 2A18 18 0 0 1 2 4a2 2 0 0 1 2-2h3a2 2 0 0 1 2 2v3a2 2 0 0 1-.8 1.6l-.468.351a1 1 0 0 0-.292 1.233 14 14 0 0 0 6.392 6.384"/>
    </g>
  </symbol>

  <symbol id="menu" viewBox="0 0 24 24">
  <g fill="none" stroke="currentColor" stroke-width="2" stroke-linecap="round" stroke-linejoin="round">
    <path d="M4 5h16"/><path d="M4 12h16"/><path d="M4 19h16"/>
    </g>
  </symbol>
<!-- reloj -->
   <symbol id="reloj" viewBox="0 0 24 24">
  <g fill="none" stroke="currentColor" stroke-width="2" stroke-linecap="round" stroke-linejoin="round">
    <circle cx="12" cy="12" r="10"/><path d="M12 6v6l4 2"/>
    </g>
  </symbol>
<!-- Ubicación -->
  <symbol id="ubicacion" viewBox="0 0 24 24">
  <g fill="none" stroke="currentColor" stroke-width="2" stroke-linecap="round" stroke-linejoin="round">
    <path d="M20 10c0 4.993-5.539 10.193-7.399 11.799a1 1 0 0 1-1.202 0C9.539 20.193 4 14.993 4 10a8 8 0 0 1 16 0"/><circle cx="12" cy="10" r="3"/>
    </g>
  </symbol>
  <!-- Bolsa -->
  <symbol id="bolsa" viewBox="0 0 24 24">
  <g fill="none" stroke="currentColor" stroke-width="2" stroke-linecap="round" stroke-linejoin="round">
    <path d="M2.048 18.566A2 2 0 0 0 4 21h16a2 2 0 0 0 1.952-2.434l-2-9A2 2 0 0 0 18 8H6a2 2 0 0 0-1.952 1.566z"/><path d="M8 11V6a4 4 0 0 1 8 0v5"/>
    </g>
  </symbol>
</svg>

